<svg xmlns="http://www.w3.org/2000/svg" viewBox="0 0 120 84" role="img" aria-label="CJ Logistics logo">
  <rect width="120" height="84" fill="none"/>
  <path fill="#0072CE" d="M40.8 5.8c14.4-3.1 24.9 8.8 31.2 24.2 6.4 15.7 6.5 32.5-4.8 38.3-11.4 5.9-33.1-2.6-44.8-13.1C10.6 44.6 8.8 29.7 17.7 18.6 24.2 10.5 31.1 7.9 40.8 5.8Z"/>
  <path fill="#FF9700" d="M75.1 27.3c14.2-2.3 29.6 3.5 36.1 15.4 6.1 11.1 2.1 25.9-9.2 33.6-11.6 7.9-27 2.8-36-8.4-9.2-11.4-16.2-31.1-8.1-37.3 3.5-2.7 9.3-2 17.2-3.3Z"/>
  <path fill="#ED1C24" d="M42.8 45.5c11.6-8.1 21.5-4 27.9 9.3 6.5 13.5 7.3 28.3-2.2 36.6-9.7 8.4-29 10.8-40.7 2.4-11.5-8.2-13.4-23.1-6.1-35.5 5.8-9.8 12.4-12.7 21.1-12.8Z"/>
</svg>
